# xmcd
#
# Track frame offsets: 
#        150
#        42180
#        62900
#        95461
#        121140
#        155560
#        179130
#        197383
#        210473
#        233320
#        248940
#        274450
#
# Disc length: 4007 seconds
#
# Revision: 1
# Processed by: cddbd v1.4PL0 Copyright (c) Steve Scherf et al.
# Submitted via: ExactAudioCopy v0.90b4
#
DISCID=a50fa50c
DTITLE=Ravel - Trio Sonates Berceuse
DYEAR=1900
DGENRE=
TTITLE0=Modéré
TTITLE1=Assez vif
TTITLE2=Passacaille
TTITLE3=Final
TTITLE4=Allegretto
TTITLE5=Blues
TTITLE6=Perpetuum mobile
TTITLE7=Berceuse
TTITLE8=Allegro
TTITLE9=Très vif
TTITLE10=Lent
TTITLE11=Vif avec entrain
EXTD=
EXTT0=
EXTT1=
EXTT2=
EXTT3=
EXTT4=
EXTT5=
EXTT6=
EXTT7=
EXTT8=
EXTT9=
EXTT10=
EXTT11=
PLAYORDER=
